<?xml version="1.0" encoding="UTF-8" standalone="no"?>
<!-- Created with Inkscape (http://www.inkscape.org/) -->

<svg
   width="210mm"
   height="297mm"
   viewBox="0 0 210 297"
   version="1.1"
   id="svg5"
   inkscape:version="1.1.2 (0a00cf5339, 2022-02-04)"
   sodipodi:docname="oro_logo_3.svg"
   inkscape:export-filename="/home/desktop/Documents/oro_logo/oro_logo_purp.png"
   inkscape:export-xdpi="96"
   inkscape:export-ydpi="96"
   xmlns:inkscape="http://www.inkscape.org/namespaces/inkscape"
   xmlns:sodipodi="http://sodipodi.sourceforge.net/DTD/sodipodi-0.dtd"
   xmlns:xlink="http://www.w3.org/1999/xlink"
   xmlns="http://www.w3.org/2000/svg"
   xmlns:svg="http://www.w3.org/2000/svg">
  <sodipodi:namedview
     id="namedview7"
     pagecolor="#505050"
     bordercolor="#eeeeee"
     borderopacity="1"
     inkscape:pageshadow="0"
     inkscape:pageopacity="0"
     inkscape:pagecheckerboard="0"
     inkscape:document-units="mm"
     showgrid="false"
     inkscape:zoom="0.77771462"
     inkscape:cx="510.47002"
     inkscape:cy="471.89546"
     inkscape:window-width="3440"
     inkscape:window-height="1287"
     inkscape:window-x="0"
     inkscape:window-y="32"
     inkscape:window-maximized="1"
     inkscape:current-layer="layer5" />
  <defs
     id="defs2">
    <linearGradient
       inkscape:collect="always"
       id="linearGradient5097">
      <stop
         style="stop-color:#ffcc00;stop-opacity:1"
         offset="0"
         id="stop5093" />
      <stop
         style="stop-color:#a02c89;stop-opacity:1"
         offset="1"
         id="stop5095" />
    </linearGradient>
    <linearGradient
       id="linearGradient14420"
       inkscape:swatch="solid">
      <stop
         style="stop-color:#7db098;stop-opacity:1;"
         offset="0"
         id="stop14418" />
    </linearGradient>
    <linearGradient
       id="linearGradient4188"
       inkscape:swatch="solid">
      <stop
         style="stop-color:#000000;stop-opacity:1;"
         offset="0"
         id="stop4186" />
    </linearGradient>
    <linearGradient
       id="linearGradient4102"
       inkscape:swatch="solid">
      <stop
         style="stop-color:#217867;stop-opacity:1;"
         offset="0"
         id="stop4100" />
    </linearGradient>
    <linearGradient
       id="linearGradient3808"
       inkscape:swatch="solid">
      <stop
         style="stop-color:#24221c;stop-opacity:1;"
         offset="0"
         id="stop3806" />
    </linearGradient>
    <linearGradient
       inkscape:collect="always"
       id="linearGradient35673">
      <stop
         style="stop-color:#ffcc00;stop-opacity:1;"
         offset="0"
         id="stop35669" />
      <stop
         style="stop-color:#ffcc00;stop-opacity:0;"
         offset="1"
         id="stop35671" />
    </linearGradient>
    <linearGradient
       id="linearGradient23318"
       inkscape:swatch="solid">
      <stop
         style="stop-color:#000000;stop-opacity:1;"
         offset="0"
         id="stop23316" />
    </linearGradient>
    <linearGradient
       id="linearGradient23133"
       inkscape:swatch="solid">
      <stop
         style="stop-color:#000000;stop-opacity:1;"
         offset="0"
         id="stop23131" />
    </linearGradient>
    <linearGradient
       id="linearGradient13113"
       inkscape:swatch="solid">
      <stop
         style="stop-color:#55094f;stop-opacity:1;"
         offset="0"
         id="stop13111" />
    </linearGradient>
    <linearGradient
       id="linearGradient12671"
       inkscape:swatch="solid">
      <stop
         style="stop-color:#91485a;stop-opacity:1;"
         offset="0"
         id="stop12669" />
    </linearGradient>
    <linearGradient
       inkscape:collect="always"
       id="linearGradient6155-3">
      <stop
         style="stop-color:#91485a;stop-opacity:1;"
         offset="0"
         id="stop6151" />
      <stop
         style="stop-color:#91485a;stop-opacity:0;"
         offset="1"
         id="stop6153" />
    </linearGradient>
    <linearGradient
       inkscape:collect="always"
       xlink:href="#linearGradient6155-3"
       id="linearGradient6157"
       x1="158.62494"
       y1="91.934135"
       x2="251.50955"
       y2="-2.8693905"
       gradientUnits="userSpaceOnUse"
       gradientTransform="translate(-0.46731434,-0.53539)" />
    <linearGradient
       inkscape:collect="always"
       xlink:href="#linearGradient6155-3"
       id="linearGradient8465"
       x1="60.523567"
       y1="128.73921"
       x2="57.783607"
       y2="136.68076"
       gradientUnits="userSpaceOnUse" />
    <linearGradient
       inkscape:collect="always"
       xlink:href="#linearGradient13113"
       id="linearGradient23135"
       x1="19.059475"
       y1="150.11255"
       x2="184.59695"
       y2="150.11255"
       gradientUnits="userSpaceOnUse" />
    <linearGradient
       inkscape:collect="always"
       xlink:href="#linearGradient13113"
       id="linearGradient23320"
       x1="18.717421"
       y1="149.77402"
       x2="186.07983"
       y2="149.77402"
       gradientUnits="userSpaceOnUse" />
    <linearGradient
       inkscape:collect="always"
       xlink:href="#linearGradient6155-3"
       id="linearGradient29850"
       x1="125.49236"
       y1="113.93952"
       x2="112.36809"
       y2="72.292137"
       gradientUnits="userSpaceOnUse" />
    <linearGradient
       inkscape:collect="always"
       xlink:href="#linearGradient6155-3"
       id="linearGradient33270"
       x1="196.03784"
       y1="192.80809"
       x2="92.364288"
       y2="74.732269"
       gradientUnits="userSpaceOnUse" />
    <linearGradient
       inkscape:collect="always"
       xlink:href="#linearGradient6155-3"
       id="linearGradient35047"
       x1="57.256981"
       y1="154.18196"
       x2="58.263134"
       y2="161.9901"
       gradientUnits="userSpaceOnUse" />
    <linearGradient
       inkscape:collect="always"
       xlink:href="#linearGradient35673"
       id="linearGradient35675"
       x1="18.071207"
       y1="233.32933"
       x2="98.57251"
       y2="138.60571"
       gradientUnits="userSpaceOnUse" />
    <linearGradient
       inkscape:collect="always"
       xlink:href="#linearGradient13113"
       id="linearGradient14422"
       x1="3.7075343"
       y1="151.36542"
       x2="198.63223"
       y2="151.36542"
       gradientUnits="userSpaceOnUse" />
    <radialGradient
       inkscape:collect="always"
       xlink:href="#linearGradient5097"
       id="radialGradient5099"
       cx="339.02203"
       cy="29.071234"
       fx="339.02203"
       fy="29.071234"
       r="97.462349"
       gradientUnits="userSpaceOnUse"
       gradientTransform="matrix(1.2739473,-1.0858924,1.0600987,1.2437135,-326.67747,416.80314)" />
  </defs>
  <g
     inkscape:groupmode="layer"
     id="layer5"
     inkscape:label="bg"
     style="display:inline">
    <circle
       style="opacity:0.767364;fill:url(#radialGradient5099);fill-opacity:1;stroke:url(#linearGradient14422);stroke-width:10.5869;stroke-linecap:round;stroke-linejoin:round;stroke-miterlimit:4;stroke-dasharray:none;stroke-opacity:1"
       id="path4098"
       cx="101.16988"
       cy="151.36542"
       r="92.1689" />
  </g>
  <g
     inkscape:groupmode="layer"
     id="layer6"
     inkscape:label="shadow"
     style="display:inline;opacity:0.580078"
     sodipodi:insensitive="true">
    <path
       style="display:inline;fill:#280b22;fill-opacity:1;stroke:none;stroke-width:2.476;stroke-linejoin:round;stroke-miterlimit:4;stroke-dasharray:none"
       d="m 131.23247,235.36071 c -5.81314,-0.30746 -11.35726,-1.83223 -16.97973,-4.66986 l -2.23418,-1.12758 -2.23417,-1.44818 c -7.70536,-4.99456 -13.030549,-11.17072 -17.871258,-20.7271 l -1.44038,-2.84354 -1.0483,-2.59935 c -2.37183,-5.88113 -3.63732,-10.72496 -4.32363,-16.54925 l -0.21441,-1.81955 0.004,-3.98568 0.004,-3.98569 0.30556,-3.11922 c 0.16806,-1.71558 0.31938,-3.26661 0.33626,-3.44674 l 0.0307,-0.3275 -0.8043,-0.19237 -0.8043,-0.19237 -0.34948,-0.63281 -0.34947,-0.63282 0.21225,-0.45165 0.21225,-0.45165 0.83744,-0.5618 c 0.4606,-0.30898 1.02955,-0.71775 1.26434,-0.90837 l 0.42689,-0.34658 0.51654,-2.97443 c 0.81547,-4.69574 1.50686,-7.80707 3.32463,-14.96114 3.38259,-13.3126 4.11313,-17.21686 4.45846,-23.82745 l 0.11768,-2.25278 -0.20518,-2.33942 -0.20518,-2.33942 -0.33691,-1.5723 c -0.43365,-2.02378 -0.91924,-3.41967 -1.86957,-5.37425 l -0.76554,-1.57454 -0.92577,-1.33015 c -0.50913,-0.73158 -1.52847,-2.02664 -2.26514,-2.87792 l -1.33942,-1.5478 -1.61163,-1.35045 c -0.88641,-0.742742 -2.31143,-1.836732 -3.16674,-2.431082 l -1.55509,-1.08064 -1.78734,-0.86177 -1.78734,-0.86177 -1.51924,-0.42375 c -0.83558,-0.23306 -2.14203,-0.52085 -2.90321,-0.63952 l -1.38396,-0.21577 -2.63755,0.0983 -2.63755,0.0983 -1.77878,0.36921 c -0.97832,0.20306 -2.74779,0.67953 -3.93214,1.05881 l -2.15338,0.68961 -3.03848,1.46157 -3.03847,1.46158 -1.60861,1.12665 c -0.88473,0.619672 -2.22758,1.675612 -2.98411,2.346572 l -1.3755,1.21989 -1.1778,1.5134 -1.17779,1.51339 -1.05651,2.07949 -1.05652,2.07948 -0.79849,2.33943 c -0.84922,2.48805 -1.91,6.44163 -2.71997,10.13749 l -0.4937,2.25278 -0.0135,1.9062 -0.0135,1.90619 0.40985,1.15182 0.40985,1.15181 0.68465,1.10096 0.68465,1.10096 0.57252,0.3274 0.57252,0.3274 1.192,0.0824 1.19199,0.0824 1.96607,-0.38089 c 1.08134,-0.20949 3.17253,-0.64213 4.64709,-0.96141 1.47455,-0.31928 3.60596,-0.71069 4.73645,-0.86979 l 2.05544,-0.28929 1.60861,0.0693 1.6086,0.0693 1.03098,0.46018 1.03099,0.46018 0.94505,0.91791 0.94506,0.91792 2.35809,3.42648 c 1.29695,1.88457 2.63831,3.96599 2.98081,4.62539 0.66777,1.28563 1.84899,4.2495 2.22942,5.594 l 0.2327,0.82238 -0.0831,1.34375 -0.0831,1.34376 -0.50027,0.9531 -0.50028,0.9531 -1.18769,1.12639 -1.18768,1.12638 -1.69257,1.16404 c -1.59961,1.10012 -3.36219,2.05391 -4.86411,2.63214 l -0.66927,0.25767 0.55836,1.43889 c 0.3071,0.79139 0.75967,2.06273 1.00572,2.82521 l 0.44735,1.38632 0.021,1.56108 0.021,1.56107 -0.5827,1.14976 -0.5827,1.14977 -1.29401,1.25087 c -1.48958,1.43992 -3.11145,2.61255 -4.34536,3.14174 l -0.85874,0.3683 -1.26217,-0.0959 -1.26218,-0.0959 -4.37898,-1.30083 c -2.40844,-0.71546 -5.98759,-1.74228 -7.95367,-2.28182 -5.64024,-1.54785 -8.48727,-2.69238 -11.64722,-4.6823 l -1.4594,-0.91901 -1.3443,-1.23808 -1.34431,-1.23807 -1.0543,-1.50472 c -0.57986,-0.8276 -1.40017,-2.12858 -1.8229,-2.89105 -0.42274,-0.76248 -1.3392,-2.35611 -2.03658,-3.54139 l -1.26797,-2.15511 -0.0147,-2.52378 -0.0147,-2.52379 -1.01191,-3.7436 c -1.81237,-6.70493 -2.51409,-10.76064 -2.80534,-16.2138 l -0.16349,-3.06131 0.16474,-2.78711 c 0.17276,-2.92262 0.37365,-4.63902 0.81299,-6.94609 1.88035,-9.87419 7.98704,-22.045582 14.45862,-28.817862 6.4074,-6.70511 16.96294,-10.81332 31.28396,-12.17568 l 2.14481,-0.20404 3.93215,0.003 3.93215,0.003 2.39754,0.27881 c 3.01314,0.35039 6.09702,0.95265 8.96066,1.74997 l 2.22558,0.61966 2.50228,0.96776 c 5.54071,2.14287 10.687973,5.06784 15.549838,8.83633 l 1.96608,1.52392 2.60014,2.51691 2.60015,2.51691 1.2115,1.47297 c 0.66631,0.81013 1.86188,2.40874 2.65681,3.55246 l 1.44532,2.079482 1.39041,2.77266 1.39042,2.77264 0.79898,2.33942 c 0.87915,2.57416 1.53589,5.26762 2.02818,8.31795 l 0.32161,1.99284 -0.002,4.93878 -0.002,4.93878 -0.41346,2.51271 -0.41349,2.51272 -0.77521,2.94594 -0.77522,2.94594 -1.15602,3.20587 c -0.63581,1.76323 -1.40393,3.84646 -1.70693,4.62939 l -0.5509,1.42351 0.13726,0.0822 0.13725,0.0822 2.61155,-0.94032 c 1.43635,-0.51718 3.96253,-1.33535 5.61374,-1.81816 l 3.00218,-0.87782 3.04484,-0.58729 3.04483,-0.58728 2.13814,-0.20695 2.13814,-0.20695 3.22388,0.098 3.22388,0.098 1.48325,0.26554 c 0.81579,0.14604 2.46119,0.50416 3.65643,0.79581 l 2.17319,0.53028 2.06304,0.79602 c 1.13467,0.43782 3.01467,1.26434 4.17776,1.83673 l 2.11469,1.0407 2.19368,1.42033 c 11.04846,7.15355 17.77377,17.60022 19.88632,30.89018 l 0.29765,1.87244 0.0105,4.41891 0.0105,4.41891 -0.32227,1.99284 c -0.92696,5.73243 -2.40265,10.19702 -5.0373,15.24008 l -1.36156,2.60621 -1.47561,2.14231 c -2.5431,3.69217 -5.32727,6.74638 -8.51154,9.3371 l -1.69798,1.38147 -2.23417,1.43876 c -2.69111,1.73302 -4.56948,2.72272 -7.40213,3.90016 -4.10761,1.70739 -8.88706,3.07217 -13.35567,3.81371 l -2.08008,0.34519 -2.567,0.16993 c -1.41184,0.0935 -2.72786,0.15666 -2.92446,0.14044 -0.19661,-0.0162 -0.79984,-0.0529 -1.34051,-0.0815 z m 8.72033,-20.8615 c 0.95458,-0.1005 2.70249,-0.37028 3.88424,-0.59949 l 2.14862,-0.41676 2.141,-0.71551 2.14098,-0.71551 1.91651,-0.95018 1.91653,-0.95018 1.55701,-1.07066 1.55703,-1.07065 1.70974,-1.65769 1.70977,-1.65768 1.13498,-1.54819 1.13497,-1.54819 1.05014,-2.07949 1.05014,-2.07949 0.54031,-1.61778 c 0.60891,-1.82318 1.14833,-4.2576 1.42601,-6.43568 l 0.18723,-1.46842 -0.004,-2.95049 -0.003,-2.95049 -0.25205,-1.81955 c -0.36264,-2.61806 -0.91911,-4.95188 -1.73026,-7.25671 l -0.70891,-2.01433 -0.95751,-1.9062 c -1.74168,-3.46734 -3.573,-5.88707 -6.5713,-8.68268 l -1.87803,-1.75107 -1.76709,-1.13793 c -3.22883,-2.07922 -6.2713,-3.34933 -9.92086,-4.14158 l -1.85535,-0.40276 -3.93215,0.003 -3.93215,0.003 -1.78734,0.31298 c -0.98304,0.17213 -2.91336,0.59003 -4.28962,0.92866 l -2.50227,0.61568 -3.30658,1.09967 c -4.14029,1.37694 -9.64554,3.45284 -9.93682,3.74693 l -0.22004,0.22217 -0.72674,3.06078 c -0.88795,3.73976 -1.67292,7.91664 -2.09526,11.14905 l -0.31699,2.42607 -0.008,3.55245 -0.008,3.55246 0.23872,1.64626 0.23873,1.64626 0.68633,2.62436 0.68634,2.62436 1.01011,2.48771 1.01011,2.48771 0.98205,1.81955 c 0.54013,1.00075 1.57292,2.67734 2.29508,3.72575 l 1.31303,1.90619 1.18701,1.29968 c 1.59111,1.74214 3.57274,3.41688 5.63104,4.75901 l 1.69797,1.10717 1.69797,0.79959 1.69798,0.79958 1.45294,0.4304 c 0.79912,0.23671 2.16644,0.53797 3.03848,0.66945 l 1.58553,0.23905 1.66033,0.0168 c 0.91319,0.009 2.44137,-0.0654 3.39595,-0.16595 z"
       id="path1471-6" />
  </g>
  <g
     inkscape:groupmode="layer"
     id="layer3"
     inkscape:label="base"
     style="display:inline"
     sodipodi:insensitive="true">
    <path
       style="fill:#782167;fill-opacity:1;stroke:url(#linearGradient23320);stroke-width:2.476;stroke-linejoin:round;stroke-miterlimit:4;stroke-dasharray:none"
       d="m 135.76855,229.84135 c -5.81314,-0.30746 -11.35726,-1.83223 -16.97973,-4.66986 l -2.23418,-1.12758 -2.23417,-1.44818 c -7.70536,-4.99456 -13.03057,-11.17072 -17.871289,-20.7271 l -1.44038,-2.84354 -1.0483,-2.59935 c -2.37183,-5.88113 -3.63732,-10.72496 -4.32363,-16.54925 l -0.21441,-1.81955 0.004,-3.98568 0.004,-3.98569 0.30556,-3.11922 c 0.16806,-1.71558 0.31938,-3.26661 0.33626,-3.44674 l 0.0307,-0.3275 -0.8043,-0.19237 -0.8043,-0.19237 -0.34948,-0.63281 -0.34947,-0.63282 0.21225,-0.45165 0.21225,-0.45165 0.83744,-0.5618 c 0.4606,-0.30898 1.02955,-0.71775 1.26434,-0.90837 l 0.42689,-0.34658 0.51654,-2.97443 c 0.81547,-4.69574 1.50686,-7.80707 3.32463,-14.96114 3.38259,-13.3126 4.11313,-17.21686 4.458455,-23.82745 l 0.11768,-2.25278 -0.20518,-2.33942 -0.205175,-2.33942 -0.33691,-1.5723 c -0.43365,-2.02378 -0.91924,-3.41967 -1.86957,-5.37425 l -0.76554,-1.57454 -0.92577,-1.33015 c -0.50913,-0.731577 -1.52847,-2.026641 -2.26514,-2.877921 l -1.33942,-1.54779 -1.61163,-1.350446 c -0.88641,-0.742746 -2.31143,-1.836735 -3.16674,-2.431085 l -1.55509,-1.080636 -1.78734,-0.861772 -1.78734,-0.861771 -1.51924,-0.423749 c -0.83558,-0.233061 -2.14203,-0.520847 -2.90321,-0.639521 l -1.38396,-0.215771 -2.63755,0.09832 -2.63755,0.09832 -1.77878,0.369206 c -0.97832,0.203066 -2.74779,0.679531 -3.93214,1.058816 l -2.15338,0.68961 -3.03848,1.461572 -3.03847,1.461574 -1.60861,1.126657 c -0.88473,0.619663 -2.22758,1.675606 -2.98411,2.346556 l -1.3755,1.21989 -1.1778,1.513397 -1.17779,1.513394 -1.05651,2.07949 -1.05652,2.07948 -0.79849,2.33943 c -0.84922,2.48805 -1.91,6.44163 -2.71997,10.13749 l -0.4937,2.25278 -0.0135,1.9062 -0.0135,1.90619 0.40985,1.15182 0.40985,1.15181 0.68465,1.10096 0.68465,1.10096 0.57252,0.3274 0.57252,0.3274 1.192,0.0824 1.19199,0.0824 1.96607,-0.38089 c 1.08134,-0.20949 3.17253,-0.64213 4.64709,-0.96141 1.47455,-0.31928 3.60596,-0.71069 4.73645,-0.86979 l 2.05544,-0.28929 1.60861,0.0693 1.6086,0.0693 1.03098,0.46018 1.03099,0.46018 0.94505,0.91791 0.94506,0.91792 2.35809,3.42648 c 1.29695,1.88457 2.63831,3.96599 2.98081,4.62539 0.66777,1.28563 1.84899,4.2495 2.22942,5.594 l 0.2327,0.82238 -0.0831,1.34375 -0.0831,1.34376 -0.50027,0.9531 -0.50028,0.9531 -1.18769,1.12639 -1.18768,1.12638 -1.69257,1.16404 c -1.59961,1.10012 -3.36219,2.05391 -4.86411,2.63214 l -0.66927,0.25767 0.55836,1.43889 c 0.3071,0.79139 0.75967,2.06273 1.00572,2.82521 l 0.44735,1.38632 0.021,1.56108 0.021,1.56107 -0.5827,1.14976 -0.5827,1.14977 -1.29401,1.25087 c -1.48958,1.43992 -3.11145,2.61255 -4.34536,3.14174 l -0.85874,0.3683 -1.26217,-0.0959 -1.26218,-0.0959 -4.37898,-1.30083 c -2.40844,-0.71546 -5.98759,-1.74228 -7.95367,-2.28182 -5.64024,-1.54785 -8.48727,-2.69238 -11.64722,-4.6823 l -1.4594,-0.91901 -1.3443,-1.23808 -1.34431,-1.23807 -1.0543,-1.50472 c -0.57986,-0.8276 -1.40017,-2.12858 -1.8229,-2.89105 -0.42274,-0.76248 -1.3392,-2.35611 -2.03658,-3.54139 l -1.26797,-2.15511 -0.0147,-2.52378 -0.0147,-2.52379 -1.01191,-3.7436 c -1.81237,-6.70493 -2.51409,-10.76064 -2.80534,-16.2138 l -0.16349,-3.06131 0.16474,-2.78711 c 0.17276,-2.92262 0.37365,-4.63902 0.81299,-6.94609 1.88035,-9.87419 7.98704,-22.045571 14.45862,-28.817853 6.4074,-6.705112 16.96294,-10.813316 31.28396,-12.17568 l 2.14481,-0.204037 3.93215,0.0031 3.93215,0.0031 2.39754,0.278805 c 3.01314,0.350392 6.09702,0.952657 8.96066,1.749971 l 2.22558,0.619661 2.50228,0.967757 c 5.54071,2.142873 10.687979,5.067846 15.549859,8.836331 l 1.96608,1.523919 2.60014,2.516913 2.60015,2.516912 1.2115,1.47297 c 0.66631,0.810133 1.86188,2.408738 2.65681,3.552456 l 1.44532,2.079484 1.39041,2.77265 1.39042,2.772641 0.79898,2.33942 c 0.87915,2.57416 1.53589,5.26762 2.02818,8.31795 l 0.32161,1.99284 -0.002,4.93878 -0.002,4.93878 -0.41346,2.51271 -0.41349,2.51272 -0.77521,2.94594 -0.77522,2.94594 -1.15602,3.20587 c -0.63581,1.76323 -1.40393,3.84646 -1.70693,4.62939 l -0.5509,1.42351 0.13726,0.0822 0.13725,0.0822 2.61155,-0.94032 c 1.43635,-0.51718 3.96253,-1.33535 5.61374,-1.81816 l 3.00218,-0.87782 3.04484,-0.58729 3.04483,-0.58728 2.13814,-0.20695 2.13814,-0.20695 3.22388,0.098 3.22388,0.098 1.48325,0.26554 c 0.81579,0.14604 2.46119,0.50416 3.65643,0.79581 l 2.17319,0.53028 2.06304,0.79602 c 1.13467,0.43782 3.01467,1.26434 4.17776,1.83673 l 2.11469,1.0407 2.19368,1.42033 c 11.04846,7.15355 17.77377,17.60022 19.88632,30.89018 l 0.29765,1.87244 0.0105,4.41891 0.0105,4.41891 -0.32226,1.99284 c -0.92697,5.73243 -2.40265,10.19702 -5.0373,15.24008 l -1.36156,2.60621 -1.47561,2.14231 c -2.5431,3.69217 -5.32727,6.74638 -8.51154,9.3371 l -1.69798,1.38147 -2.23417,1.43876 c -2.69111,1.73302 -4.56948,2.72272 -7.40213,3.90016 -4.10761,1.70739 -8.88706,3.07217 -13.35567,3.81371 l -2.08008,0.34519 -2.567,0.16993 c -1.41184,0.0935 -2.72786,0.15666 -2.92446,0.14044 -0.19661,-0.0162 -0.79984,-0.0529 -1.34051,-0.0815 z m 8.72033,-20.8615 c 0.95458,-0.1005 2.70249,-0.37028 3.88424,-0.59949 l 2.14862,-0.41676 2.141,-0.71551 2.14098,-0.71551 1.91651,-0.95018 1.91653,-0.95018 1.55701,-1.07066 1.55703,-1.07065 1.70974,-1.65769 1.70977,-1.65768 1.13498,-1.54819 1.13497,-1.54819 1.05014,-2.07949 1.05014,-2.07949 0.54031,-1.61778 c 0.60891,-1.82318 1.14833,-4.2576 1.42601,-6.43568 l 0.18723,-1.46842 -0.004,-2.95049 -0.003,-2.95049 -0.25205,-1.81955 c -0.36264,-2.61806 -0.91911,-4.95188 -1.73026,-7.25671 l -0.70891,-2.01433 -0.95751,-1.9062 c -1.74168,-3.46734 -3.573,-5.88707 -6.5713,-8.68268 l -1.87803,-1.75107 -1.76709,-1.13793 c -3.22883,-2.07922 -6.2713,-3.34933 -9.92086,-4.14158 l -1.85535,-0.40276 -3.93215,0.003 -3.93215,0.003 -1.78734,0.31298 c -0.98304,0.17213 -2.91336,0.59003 -4.28962,0.92866 l -2.50227,0.61568 -3.30658,1.09967 c -4.14029,1.37694 -9.64554,3.45284 -9.93682,3.74693 l -0.22004,0.22217 -0.72674,3.06078 c -0.88795,3.73976 -1.67292,7.91664 -2.09526,11.14905 l -0.31699,2.42607 -0.008,3.55245 -0.008,3.55246 0.23873,1.64626 0.23873,1.64626 0.68633,2.62436 0.68634,2.62436 1.01011,2.48771 1.01011,2.48771 0.98205,1.81955 c 0.54013,1.00075 1.57292,2.67734 2.29508,3.72575 l 1.31303,1.90619 1.18701,1.29968 c 1.59111,1.74214 3.57274,3.41688 5.63104,4.75901 l 1.69797,1.10717 1.69797,0.79959 1.69798,0.79958 1.45294,0.4304 c 0.79912,0.23671 2.16644,0.53797 3.03848,0.66945 l 1.58553,0.23905 1.66033,0.0168 c 0.91319,0.009 2.44137,-0.0654 3.39595,-0.16595 z"
       id="path1471" />
  </g>
  <g
     inkscape:label="mid"
     inkscape:groupmode="layer"
     id="layer1"
     style="display:inline"
     sodipodi:insensitive="true">
    <path
       style="fill:url(#linearGradient6157);fill-opacity:1;stroke-width:0.175991"
       d="m 133.84749,228.98309 c -0.93388,-0.0923 -2.69027,-0.36221 -3.90309,-0.59979 l -2.20509,-0.43196 -2.1477,-0.69609 c -5.16784,-1.67493 -10.12054,-4.31385 -14.62207,-7.79098 l -1.87671,-1.44964 -1.78734,-1.7448 c -8.588988,-8.38456 -15.442222,-22.55426 -17.150766,-35.4608 l -0.265849,-2.00826 -0.118318,-2.84388 -0.118318,-2.84387 0.211612,-3.23589 c 0.116386,-1.77973 0.208578,-3.27378 0.332911,-4.3309 0.221542,-0.61729 0.101537,-1.2737 0.617608,-1.7359 0,0 0.314371,-0.15829 1.818334,-0.56028 3.683026,-0.98442 8.035006,-2.24649 12.909926,-4.08186 3.34801,-1.09872 4.99953,-1.9011 7.55256,-2.95305 -0.98391,4.5237 -1.31935,9.77936 -1.51285,11.7858 l -0.2866,2.8593 -0.01,3.29252 -0.01,3.29252 0.21794,1.7329 c 0.11987,0.9531 0.41676,2.65356 0.65977,3.77881 l 0.44183,2.0459 0.81329,2.4488 c 1.28859,3.87995 3.11726,7.76911 5.01641,10.66876 5.8682,7.59495 11.59592,11.3756 20.51612,12.88679 9.05937,0.35547 15.9086,-2.71111 21.77613,-7.35649 0.80779,-0.64132 2.08375,-1.77014 2.83545,-2.50851 l 1.36673,-1.34248 1.2519,-1.62632 1.25193,-1.62632 1.06854,-2.01278 1.06853,-2.01278 0.56523,-1.55962 c 0.31089,-0.85779 0.76146,-2.33942 1.00128,-3.29252 l 0.43604,-1.73291 0.26669,-2.07431 0.26669,-2.07431 v -2.39475 -2.39475 l -0.18848,-1.68275 c -0.10366,-0.92552 -0.38896,-2.65751 -0.63398,-3.84889 l -0.4455,-2.16613 -0.71381,-2.07948 -0.71379,-2.07949 -0.9862,-1.99284 -0.9862,-1.99284 -1.35902,-1.99284 -1.35902,-1.99284 -2.42864,-2.34828 -2.42864,-2.34828 -1.93912,-1.2528 -1.93914,-1.25281 -1.63554,-0.75755 c -2.21232,-1.02468 -4.39886,-1.74929 -6.69323,-2.21809 l -1.91296,-0.39087 -3.66404,-5.2e-4 -3.66405,-5.2e-4 -1.93523,0.3155 c -4.70932,0.76776 -9.2804,2.13157 -17.49649,5.22018 -14.69879,5.52562 -17.45412,6.54522 -20.336595,7.52547 -1.720314,0.58503 -4.052793,1.34216 -5.183286,1.68251 l -2.055441,0.61882 -1.014371,0.0959 -1.014371,0.0958 -0.460185,-0.48143 c -0.253101,-0.26468 -0.460184,-0.58848 -0.460184,-0.71945 v -0.23813 l 1.206454,-0.75245 c 5.065558,-3.15934 15.327799,-6.57656 22.914519,-9.33172 5.18678,-2.17425 11.40495,-4.44746 15.95121,-5.59678 4.03833,-0.94478 5.01743,-1.35702 10.0627,-1.79836 3.46864,-0.18527 7.43146,-0.0344 10.65086,0.66683 13.43417,3.68235 24.087,13.50314 30.7278,26.27368 1.97404,5.89407 3.63946,12.57432 3.94648,18.19716 0.14271,2.74118 -0.60839,7.06732 -1.32036,10.03929 -0.57212,2.38818 -1.3716,3.56281 -2.75349,6.20335 l -1.16059,2.21767 -1.46903,2.13279 c -1.9827,2.87854 -3.34393,4.48134 -5.90198,6.94929 l -2.15617,2.08023 -1.79447,1.30924 c -6.59722,4.81329 -15.27652,8.18525 -24.3007,9.44098 l -1.78734,0.2487 -2.85974,0.0776 -2.85975,0.0776 z M 56.948315,169.55972 c -0.76124,-0.1856 -2.81221,-0.7639 -4.55772,-1.28512 -1.74551,-0.52122 -4.90291,-1.41463 -7.01644,-1.98535 -6.50533,-1.75664 -9.11555,-2.78206 -12.33264,-4.84482 l -1.51924,-0.97412 -1.26596,-1.21679 -1.26596,-1.21678 -0.73951,-1.06601 c -0.40674,-0.58631 -1.33005,-2.10693 -2.05182,-3.37917 -0.72176,-1.27223 -1.70941,-2.97198 -2.19477,-3.77721 l -0.88248,-1.46405 -0.0213,-2.34834 -0.0213,-2.34834 -1.19034,-4.5922 c -1.87167,-7.22066 -2.48614,-10.98713 -2.71402,-16.63589 l -0.11535,-2.85929 0.20353,-2.61417 c 0.24329,-3.12486 0.56435,-5.28428 1.19103,-8.01066 l 0.46554,-2.02538 0.94483,-2.77265 0.94482,-2.77265 1.09787,-2.479142 c 3.22673,-7.286462 6.82133,-12.852243 10.83068,-16.769949 l 1.61027,-1.573459 1.34051,-0.952954 c 3.73892,-2.657965 8.47644,-4.556015 16.08606,-6.444748 l 3.12784,-0.776342 2.81177,-0.449567 c 1.54647,-0.247261 3.63766,-0.5387 4.64708,-0.647642 l 1.83532,-0.198075 4.20025,-0.0023 4.20025,-0.0023 2.513363,0.374413 2.513361,0.374414 2.264156,0.601637 2.264156,0.601637 2.014375,0.797061 c 4.908174,1.942098 9.493139,4.8392 14.303734,9.038101 l 2.14628,1.873374 1.69219,1.819551 c 0.9307,1.000753 2.37901,2.703114 3.21846,3.783024 l 1.52626,1.963475 1.30665,2.170834 1.30664,2.170833 0.90828,2.085144 c 2.55775,5.87185 4.93926,10.29769 4.73516,21.31105 0.0909,7.25777 -0.86877,13.85835 -2.55943,21.14444 l -1.11981,4.59851 c -1.42972,1.09292 -2.07027,1.16925 -7.93409,4.2912 -3.89881,1.91191 -7.571082,3.95422 -11.401924,6.3411 -1.355874,0.8448 -2.582437,1.536 -2.725694,1.536 h -0.260465 v -0.31627 c 0,-0.39529 0.555099,-3.44383 1.267676,-6.96193 0.299222,-1.4773 1.379711,-6.00018 2.401086,-10.05085 2.905885,-11.52442 3.537209,-14.55192 4.116537,-19.74078 l 0.29829,-2.67165 -0.095,-4.00003 -0.095,-4.00003 -0.29064,-1.47297 c -0.159854,-0.81013 -0.563693,-2.26458 -0.89742,-3.2321 l -0.606775,-1.75912 -0.74857,-1.44675 C 95.708547,100.46074 94.163456,98.267341 92.56413,96.484608 L 91.31363,95.090704 89.482811,93.565827 87.65199,92.040952 86.039784,91.01262 C 83.230396,89.220719 80.982219,88.279447 78.05343,87.668899 l -1.311484,-0.273395 -2.075521,-0.0984 -2.07553,-0.09839 -1.76725,0.213248 -1.76726,0.213246 -2.32354,0.576074 -2.32355,0.576071 -1.92585,0.722557 c -5.02583,1.885625 -8.972238,4.943835 -11.900178,8.009963 -1.5509,1.624098 -3.037182,3.397287 -4.2021,5.996267 -0.711159,1.58664 -1.388107,2.98911 -2.046214,4.92354 -0.680217,2.1363 -2.311922,8.72195 -2.461652,11.40165 0.151874,2.63917 0.04993,5.39143 2.162,8.31794 -5.017985,1.95344 -6.462515,2.98827 -10.644841,6.23633 -0.09061,0.53929 -1.568231,0.93555 -1.361435,1.45805 0.10453,0.45248 0.574726,0.26852 0.96217,0.2658 0.47003,-0.003 1.69911,-0.11751 2.7313,-0.25444 3.442654,-0.55174 5.999167,-1.4868 8.463576,-1.49931 1.58828,0.14184 3.862045,0.37185 6.711535,1.923 3.843692,1.82851 3.79712,2.02331 6.541079,2.93501 l 1.6086,0.54845 c 0.88474,0.30164 2.46721,0.9189 3.5166,1.37167 l 1.90799,0.82323 1.30922,0.95679 1.30922,0.95679 0.77021,0.88782 c 0.72758,0.99489 0.94414,1.03948 2.02835,1.58112 1.58287,0.42923 3.06268,0.70462 3.98321,0.0562 0.3988,-0.49328 0.78542,-0.90268 0.85915,-0.90977 l 0.13405,-0.0129 v 0.4388 c 0,0.24133 -0.11583,0.70757 -0.2574,1.03607 l -0.2574,0.59729 -0.85969,0.89178 c -1.11715,1.15887 -4.13216,3.41898 -5.61546,4.20948 -0.64125,0.34174 -1.6292,0.77588 -2.19545,0.96477 l -1.02954,0.34342 -2.53341,0.26174 c -1.39337,0.14395 -3.73986,0.34991 -5.21442,0.45768 l -2.68101,0.19595 -5.54075,-0.008 -5.54076,-0.008 -3.306,-0.33667 -3.306,-0.33668 -0.26868,0.0906 c -0.39532,0.13332 -1.07298,0.76137 -1.07298,0.99441 v 0.20188 l 1.38519,0.96597 c 2.39493,1.67013 5.38073,3.38678 8.80265,5.061 6.1939,3.03045 11.94703,5.40522 14.17608,5.8516 l 1.04633,0.20954 1.10208,-0.5553 c 0.60614,-0.30542 1.6905,-0.98521 2.40968,-1.51065 0.71919,-0.52544 1.38519,-0.95535 1.38519,-0.95535 1.04639,-1.96245 0.0289,0.48264 -0.40686,1.09236 -0.46298,0.79271 -1.22704,1.29423 -1.92139,1.87065 l -1.43695,1.19288 -0.99396,0.51414 -0.99397,0.51413 -0.70401,0.0889 -0.704,0.0889 z m -13.58864,-29.38996 -0.10798,-0.10469 c -2.08221,-0.17381 -4.32189,0.93511 -4.32189,0.93511 0,0 -0.11175,2.85276 1.01398,3.92029 1.12573,1.06753 2.61879,-3.20743 3.41589,-4.7507 z m 2.56138,0.47849 c -0.14745,-0.0924 -1.3889,-0.71627 -1.65343,-0.71773 l -0.48098,-0.003 -0.11046,0.17329 -0.88227,5.82898 c 0,0 2.12194,-0.0462 2.90876,-0.65315 0.72913,-0.56248 2.03551,-1.32913 2.10307,-2.10763 -0.0771,-0.59869 -1.88469,-2.52076 -1.88469,-2.52076 z"
       id="path1469"
       sodipodi:nodetypes="sscsscsscccsccsccccccsscscccscccccsscccccsscccccccccccsscccssssccccscsccccccsscsscsscccscssscccssscccsscsscccsscsscsscccccccsscsscccsccccsscsssscccsscsscccsscccccccsssccccccccccssccccccscsscssscsscccccsscssscsssccccccccccczcccccccscc" />
    <path
       style="fill:url(#linearGradient8465);fill-opacity:1;stroke:none;stroke-width:0.264583px;stroke-linecap:butt;stroke-linejoin:miter;stroke-opacity:1"
       d="m 46.238675,130.39158 c 0,0 16.704772,-4.20155 19.478627,-2.22379 2.773857,1.97776 8.982684,13.93087 8.982684,13.93087 0,0 1.10982,2.49101 -0.33221,2.65357 -1.442032,0.16255 -8.914947,-5.6003 -18.420297,-8.80258 -5.180541,-1.74529 -18.305015,-1.17024 -20.016129,-0.74944 -1.711113,0.42079 10.307325,-4.80863 10.307325,-4.80863 z"
       id="path7481"
       sodipodi:nodetypes="cscsssc" />
  </g>
  <g
     inkscape:groupmode="layer"
     id="layer2"
     inkscape:label="top_grad"
     style="display:inline"
     sodipodi:insensitive="true">
    <path
       style="fill:url(#linearGradient35675);fill-opacity:1;stroke:url(#linearGradient23135);stroke-width:0;stroke-miterlimit:4;stroke-dasharray:none"
       d="m 133.84751,228.98309 c -0.93388,-0.0923 -2.69027,-0.36221 -3.90309,-0.59979 l -2.20509,-0.43196 -2.1477,-0.69609 c -5.16784,-1.67493 -10.12054,-4.31385 -14.62207,-7.79098 l -1.87671,-1.44964 -1.78734,-1.7448 c -8.589005,-8.38456 -15.442235,-22.55426 -17.150775,-35.4608 l -0.26585,-2.00826 -0.11832,-2.84388 -0.11832,-2.84387 0.21161,-3.23589 c 0.11639,-1.77973 0.257613,-3.29062 0.37104,-4.34897 l 0.29269,-2.73098 0.16719,-0.14974 c 0.092,-0.0823 1.07872,-0.39845 2.19281,-0.70243 3.09993,-0.84583 8.814175,-0.53038 13.689095,-2.36575 2.41905,-0.91076 5.12569,-2.46765 5.91212,-2.7023 0.78643,-0.23464 1.69127,-2.18167 2.01075,-2.31605 l 0.58089,-0.24431 v 0.24374 c 0,0.3854 -1.62719,6.74 -1.79984,7.02885 -0.67508,2.04781 -1.4369,4.2544 -1.69824,6.41175 l -0.2866,2.8593 -0.01,3.29252 -0.01,3.29252 0.21794,1.7329 c 0.11987,0.9531 0.41676,2.65356 0.65977,3.77881 l 0.44183,2.0459 0.81329,2.4488 c 1.28859,3.87995 3.11726,7.76911 5.01641,10.66876 2.83368,4.3265 7.12724,8.05509 11.99919,10.42029 l 1.4922,0.72442 1.81438,0.58578 1.81438,0.58578 1.69798,0.28526 1.69797,0.28526 2.77038,3.5e-4 c 7.41744,-0.58046 11.2339,-2.27353 17.60616,-6.1238 2.3307,-2.06181 5.08523,-4.43595 6.85369,-6.71035 l 1.25193,-1.62632 1.06854,-2.01278 1.06853,-2.01278 0.56523,-1.55962 c 0.31089,-0.85779 0.76146,-2.33942 1.00128,-3.29252 l 0.43604,-1.73291 0.26669,-2.07431 0.26669,-2.07431 v -2.39475 -2.39475 l -0.18848,-1.68275 c -0.10366,-0.92552 -0.38896,-2.65751 -0.63398,-3.84889 l -0.4455,-2.16613 -0.71381,-2.07948 -0.71379,-2.07949 -0.9862,-1.99284 -0.9862,-1.99284 -1.35902,-1.99284 -1.35902,-1.99284 -2.42864,-2.34828 -2.42864,-2.34828 -1.93912,-1.2528 -1.93914,-1.25281 -1.63554,-0.75755 c -2.21232,-1.02468 -4.39886,-1.74929 -6.69323,-2.21809 l -1.91296,-0.39087 -3.66404,-5.2e-4 -3.66405,-5.2e-4 -1.93523,0.3155 c -4.70932,0.76776 -9.2804,2.13157 -17.49649,5.22018 -14.69879,5.52562 -17.45412,6.54522 -20.336605,7.52547 -1.72032,0.58503 -4.0528,1.34216 -5.18329,1.68251 l -2.05544,0.61882 -1.01437,0.0959 -1.01437,0.0958 -0.46019,-0.48143 c -0.2531,-0.26468 -0.46018,-0.58848 -0.46018,-0.71945 v -0.23813 l 1.20645,-0.75245 c 5.06556,-3.15934 16.229595,-8.37813 23.816315,-11.13329 3.04898,-1.10725 7.52981,-2.66367 7.66854,-2.66367 0.0853,0 0.74736,-0.19108 1.47125,-0.42461 2.5556,-0.82445 4.1796,-1.21366 7.57184,-1.81464 3.58469,-0.63508 4.04372,-0.67281 8.4005,-0.69065 l 3.21721,-0.0132 1.07241,0.15771 c 0.58982,0.0867 1.43434,0.20749 1.87671,0.26834 0.44236,0.0608 1.12602,0.18089 1.51923,0.26678 0.39322,0.0859 1.46832,0.31985 2.38912,0.51992 3.92693,0.85326 8.54488,2.67041 12.04752,4.74069 0.66567,0.39345 1.48592,0.87133 1.82278,1.06195 2.5735,1.4563 10.46502,7.88725 11.80183,9.61754 0.1966,0.25447 0.63434,0.82648 0.97275,1.27113 0.33842,0.44464 0.67301,0.80845 0.74357,0.80845 0.10721,0 1.53957,2.03533 3.29273,4.67884 0.46941,0.70779 0.85481,1.40533 1.24471,2.25278 0.15347,0.33358 0.34912,0.72899 0.43477,0.87869 0.26981,0.47161 1.06041,2.47806 1.1901,3.02034 0.0684,0.28593 0.18647,0.59786 0.26241,0.69317 0.076,0.0953 0.1913,0.48521 0.25633,0.86645 0.065,0.38124 0.18636,0.84912 0.26967,1.03974 0.21482,0.49158 0.67351,2.64996 0.99262,4.67069 l 0.27237,1.72474 0.14436,2.86746 c 0.0794,1.5771 0.15656,3.10139 0.17144,3.38732 0.14271,2.74118 -0.53362,6.27517 -1.98986,10.39743 -0.81797,2.31552 -1.3716,3.56281 -2.75349,6.20335 l -1.16059,2.21767 -1.46903,2.13279 c -1.9827,2.87854 -3.34393,4.48134 -5.90198,6.94929 l -2.15617,2.08023 -1.79447,1.30924 c -6.59722,4.81329 -15.27652,8.18525 -24.3007,9.44098 l -1.78734,0.2487 -2.85974,0.0776 -2.85975,0.0776 z M 56.948315,169.55972 c -0.76123,-0.1856 -2.81221,-0.7639 -4.55772,-1.28512 -1.7455,-0.52122 -4.9029,-1.41463 -7.01643,-1.98535 -6.50534,-1.75664 -9.11556,-2.78206 -12.33265,-4.84482 l -1.51924,-0.97412 -1.26596,-1.21679 -1.26596,-1.21678 -0.73951,-1.06601 c -0.40673,-0.58631 -1.33004,-2.10693 -2.05181,-3.37917 -0.72177,-1.27223 -1.70942,-2.97198 -2.19478,-3.77721 l -0.88247,-1.46405 -0.0213,-2.34834 -0.0213,-2.34834 -1.19035,-4.5922 c -1.87166,-7.22066 -2.48613,-10.98713 -2.71401,-16.63589 l -0.11535,-2.85929 0.20353,-2.61417 c 0.24328,-3.12486 0.56435,-5.28428 1.19102,-8.01066 l 0.46555,-2.02538 0.94482,-2.77265 0.94483,-2.77265 1.09786,-2.47915 c 3.22674,-7.28646 6.82134,-12.85224 10.83069,-16.76994 l 1.61027,-1.57346 1.3405,-0.95296 c 3.73893,-2.65796 8.47645,-4.556009 16.08606,-6.444742 l 3.12785,-0.776342 2.81177,-0.449567 c 1.54647,-0.247261 3.63765,-0.5387 4.64708,-0.647642 l 1.83532,-0.198075 4.20025,-0.0023 4.20025,-0.0023 2.51336,0.374413 2.51336,0.374414 2.26416,0.601637 2.26415,0.601637 2.01438,0.797061 c 4.90817,1.942096 9.49314,4.839196 14.303745,9.038096 l 2.14628,1.87338 1.69219,1.81955 c 0.9307,1.00075 2.37901,2.70311 3.21846,3.78302 l 1.52626,1.96348 1.30665,2.17083 1.30664,2.17083 0.90828,2.08515 c 2.55775,5.87185 3.65853,12.01363 4.12565,23.01897 l 0.20166,4.75119 -0.11125,2.59936 c -0.0889,2.07843 -0.22631,9.59048 -0.37761,11.58193 l -0.30167,3.63444 c 0.96217,-0.0592 2.27526,-0.74648 2.93986,-2.94655 0,0 2.22387,-6.03476 2.67217,-7.09088 0.26298,-0.61952 0.46478,-1.94716 0.59135,-2.23309 0.12656,-0.28593 0.3308,-0.77581 0.45386,-1.08862 0.36983,-0.94008 0.41374,-0.48895 0.0924,0.94925 -0.63964,2.86276 -3.64679,11.61599 -4.22115,12.28698 -0.10531,0.12301 -0.60754,0.35225 -1.11606,0.50941 -1.1641,0.35976 -7.14628,3.07728 -11.82738,5.37281 -3.89881,1.91191 -7.571095,3.95422 -11.401935,6.3411 -1.35588,0.8448 -2.58244,1.536 -2.7257,1.536 h -0.26046 v -0.31627 c 0,-0.39529 0.5551,-3.44383 1.26767,-6.96193 0.29923,-1.4773 1.37972,-6.00018 2.40109,-10.05085 2.90589,-11.52442 3.53721,-14.55192 4.11654,-19.74078 l 0.29829,-2.67165 -0.095,-4.00003 -0.095,-4.00003 -0.29064,-1.47297 c -0.15986,-0.81013 -0.5637,-2.26458 -0.89742,-3.2321 l -0.60678,-1.75912 -0.74857,-1.44675 c -0.9504,-1.83683 -2.49549,-4.03023 -4.09482,-5.81297 l -1.2505,-1.3939 -1.83082,-1.52488 -1.83082,-1.52487 -1.6122,-1.02833 c -2.80932,-1.7919 -5.0575,-2.73318 -7.98629,-3.34372 l -1.31148,-0.2734 -2.07553,-0.0984 -2.07552,-0.0984 -1.76726,0.21325 -1.76726,0.21324 -2.32354,0.57608 -2.32354,0.57607 -1.92586,0.72256 c -5.02582,1.88562 -9.56983,4.71458 -12.49777,7.78071 -1.5509,1.62409 -8.270698,-0.439399 -12.073957,3.74237 -8.043451,10.69403 -6.703901,20.97645 -5.675403,33.25257 l -0.31486,1.2963 0.10758,0.27179 0.10757,0.2718 0.8546,-0.006 c 0.47002,-0.003 1.69911,-0.11751 2.7313,-0.25444 8.463496,-1.4993 10.411569,-2.48613 18.375334,2.00098 l 3.340846,1.35772 1.60861,0.54845 c 0.88473,0.30164 2.4672,0.9189 3.5166,1.37167 l 1.90799,0.82323 1.30922,0.95679 1.30922,0.95679 0.77021,0.88782 c 0.72757,0.99489 0.94414,1.03948 2.02834,1.58112 1.58288,0.42923 3.06268,0.70462 3.98321,0.0562 0.39881,-0.49328 0.78543,-0.90268 0.85916,-0.90977 l 0.13405,-0.0129 v 0.4388 c 0,0.24133 -0.11583,0.70757 -0.2574,1.03607 l -0.2574,0.59729 -0.85969,0.89178 c -1.11715,1.15887 -4.13216,3.41898 -5.61547,4.20948 -0.64125,0.34174 -1.6292,0.77588 -2.19544,0.96477 l -1.02954,0.34342 -2.53341,0.26174 c -1.39338,0.14395 -3.73987,0.34991 -5.21442,0.45768 l -2.68101,0.19595 -5.54076,-0.008 -5.54075,-0.008 -3.306,-0.33667 -3.30601,-0.33668 -0.26867,0.0906 c -0.39532,0.13332 -1.07298,0.76137 -1.07298,0.99441 v 0.20188 l 1.38518,0.96597 c 2.39494,1.67013 5.38074,3.38678 8.80266,5.061 6.1939,3.03045 11.94703,5.40522 14.17607,5.8516 l 1.04634,0.20954 1.10208,-0.5553 c 0.60614,-0.30542 1.69049,-0.98521 2.40968,-1.51065 0.71918,-0.52544 1.38519,-0.95535 1.38519,-0.95535 1.04639,-1.96245 0.029,0.48264 -0.40687,1.09236 -0.46298,0.79271 -1.22703,1.29423 -1.92139,1.87065 l -1.43694,1.19288 -0.99397,0.51414 -0.99396,0.51413 -0.70401,0.0889 -0.70401,0.0889 z m -13.58863,-29.38996 -0.10799,-0.10469 c -2.0822,-0.17381 -4.32189,0.93511 -4.32189,0.93511 0,0 -0.11174,2.85276 1.01399,3.92029 1.12573,1.06753 2.61879,-3.20743 3.41589,-4.7507 z m 2.56138,0.47849 c -0.14746,-0.0924 -1.3889,-0.71627 -1.65344,-0.71773 l -0.48097,-0.003 -0.11046,0.17329 -0.88228,5.82898 c 0,0 2.12195,-0.0462 2.90876,-0.65315 0.72914,-0.56248 2.03552,-1.32913 2.10307,-2.10763 -0.0771,-0.59869 -1.88468,-2.52076 -1.88468,-2.52076 z m 19.82878,17.995 v -0.23106 l 0.11915,0.11553 0.11916,0.11553 -0.11916,0.11552 -0.11915,0.11553 z m -0.6988,-1.7208 c -0.32923,-0.77314 -0.66863,-1.44766 -0.75421,-1.49894 -0.0856,-0.0513 -0.1556,-0.2511 -0.1556,-0.44403 v -0.3508 l 0.22342,0.0697 0.22342,0.0697 0.58455,1.62365 c 0.74004,2.05555 0.66579,2.37969 -0.12158,0.53072 z m -5.02069,-1.54434 0.2681,-0.16175 1.60861,-0.1205 1.6086,-0.12049 -0.22192,0.22088 -0.22192,0.22089 -1.65478,0.0614 -1.65479,0.0614 z"
       id="path1469-7"
       sodipodi:nodetypes="sscsscsscccssccsssscscccccsscssscccccccccccsscccccsscccccccccccsscccssssccccscsssssscccssssssssssscssscscsscsscsscccscssscccssscccsscsscccsscsscsscccccccsscsscccsscccccssssssssscsssscccsscsscccsscccccccsscccccccccssccccccscsscssscsscccccsscssscsssccccccccccczcccccccscccccccccssscccssccccccccc" />
  </g>
  <g
     inkscape:groupmode="layer"
     id="layer4"
     inkscape:label="top_detail"
     style="display:none"
     sodipodi:insensitive="true">
    <path
       style="fill:url(#linearGradient29850);fill-opacity:1;stroke:none;stroke-width:0.264583px;stroke-linecap:butt;stroke-linejoin:miter;stroke-opacity:1"
       d="m 115.35399,144.72655 4.36111,-2.03128 c 0,0 2.90098,-8.55568 3.74398,-14.11908 0.84301,-5.5634 2.54861,-15.3352 0.23049,-22.56791 -2.31812,-7.232706 -7.30566,-14.965331 -9.44044,-17.369171 -2.13479,-2.403843 -11.46163,-9.385371 -14.745105,-10.878161 -3.283474,-1.492787 -7.139733,-3.02868 -7.139733,-3.02868 0,0 12.561948,9.08246 15.431098,12.577143 2.86914,3.494683 8.62902,15.227179 9.88372,20.600269 1.2547,5.3731 1.47247,10.35682 0.85228,17.48669 -0.62019,7.12987 -3.1774,19.33018 -3.1774,19.33018 z"
       id="path29776" />
    <path
       style="fill:url(#linearGradient33270);fill-opacity:1;stroke:none;stroke-width:0.264583px;stroke-linecap:butt;stroke-linejoin:miter;stroke-opacity:1"
       d="m 184.72792,193.8019 c 0,0 2.89698,-9.92274 0.54261,-19.81793 -1.31175,-5.51313 -3.80705,-12.90372 -8.00635,-17.76272 -4.1993,-4.859 -10.75651,-11.49739 -17.56278,-13.68274 -6.80627,-2.18536 -11.64593,-4.49812 -22.2352,-2.91579 -10.58927,1.58233 -19.56541,5.15295 -26.19303,8.41416 -7.31271,3.59831 -12.751084,6.54727 -12.751084,6.54727 0,0 13.284924,-5.01915 24.836454,-8.88675 10.56285,-3.53658 19.20341,-4.53246 27.03948,-2.50446 7.83607,2.028 12.57525,4.68647 18.87976,10.4011 6.28527,5.69719 8.57974,9.45943 10.58381,14.04368 2.00406,4.58425 2.73842,5.80869 3.98701,11.62532 1.04699,4.87748 0.87932,14.53886 0.87932,14.53886 z"
       id="path33229"
       sodipodi:nodetypes="cssssscsssssc" />
    <path
       style="fill:url(#linearGradient35047);fill-opacity:1;stroke:none;stroke-width:0.264583px;stroke-linecap:butt;stroke-linejoin:miter;stroke-opacity:1"
       d="m 66.071731,155.86034 c 0,0 0.46854,0.83713 -8.18219,0.98182 -8.650726,0.14469 -17.50628,-1.07701 -18.95422,-1.19258 -1.447938,-0.11556 -1.585794,0.28798 -1.585794,0.28798 0,0 5.69347,3.17286 10.49276,5.47679 4.755876,2.28309 9.665915,4.42638 12.551617,4.10934 2.885704,-0.31704 5.335064,-2.79932 5.632279,-3.40314 0.297217,-0.60382 0.04555,-6.26021 0.04555,-6.26021 z"
       id="path35006"
       sodipodi:nodetypes="csscssscc" />
  </g>
</svg>
